<svg version="1.2" xmlns="http://www.w3.org/2000/svg" viewBox="0 0 450 450" width="450" height="450">
	<title>umbrella</title>
	<style>
		.s0 { fill: #000000;stroke: #0000ff;stroke-miterlimit:100;stroke-width: 2 } 
	</style>
	<path id="форма 1" fill-rule="evenodd" class="s0" d="m139.4 38.3c4.2-10.4-1.3-22-12.2-25.9-10.9-4-23.1 1.1-27.2 11.5l-28.5 70.9c-7 17.4-2.7 37 11.1 50l50.4 48.1-70.6-22.4c-2.1-0.7-3.8-2.3-4.5-4.3l-16.6-47.6c-3.7-10.6-15.6-16.3-26.7-12.7-11 3.5-17 14.9-13.3 25.4l16.6 47.6c4.9 14 16.4 25 31.1 29.7l53.2 16.9-53.1 16.9c-14.7 4.7-26.2 15.7-31.1 29.7l-16.7 47.6c-3.7 10.6 2.3 21.9 13.3 25.5 11.1 3.5 23-2.2 26.7-12.8l16.6-47.6c0.7-2 2.4-3.6 4.5-4.2l70.6-22.5-50.5 48.1c-13.7 13.2-18.1 32.8-11 50l28.5 70.9c4.2 10.4 16.3 15.5 27.2 11.6 10.9-4 16.3-15.6 12.2-26l-28.6-70.9c-1-2.5-0.3-5.3 1.6-7.1l28.4-27.2c0.8 43.7 38.3 78.9 84.3 78.9 46 0 83.4-35.1 84.3-78.9l28.4 27.1c1.9 1.9 2.5 4.7 1.6 7.1l-28.6 70.9c-4.2 10.4 1.3 22.1 12.1 26 10.9 3.9 23.1-1.2 27.3-11.6l28.5-70.8c7-17.3 2.7-36.9-11.1-50l-50.5-48.1 70.7 22.5c2.1 0.6 3.7 2.2 4.5 4.2l16.6 47.6c3.6 10.6 15.6 16.3 26.7 12.8 11-3.6 17-14.9 13.3-25.5l-16.6-47.6c-4.9-14-16.4-25-31.1-29.7l-53.2-16.9 53.1-16.9c14.7-4.7 26.2-15.7 31.1-29.7l16.6-47.6c3.7-10.5-2.3-21.9-13.3-25.4-11.1-3.6-23 2.1-26.7 12.7l-16.6 47.6c-0.7 2-2.4 3.6-4.5 4.3l-70.6 22.4 50.4-48.1c13.7-13 18.1-32.6 11.1-50l-28.4-70.9c-4.2-10.4-16.4-15.6-27.3-11.5-10.8 4-16.2 15.5-12.1 25.9l28.6 70.9c0.9 2.5 0.3 5.3-1.6 7.1l-42.4 40.6v-11.8c0-26.7-16.4-49.7-40-60.5-8-3.7-16.3 2.8-16.3 11.2v9.1c0 7.3-6.3 13.4-14 13.4-7.7 0-14.1-6.1-14.1-13.4v-9.1c0-8.4-8.2-14.8-16.2-11.2-23.6 10.8-40 33.8-40 60.5v11.8l-42.4-40.5c-1.9-1.8-2.6-4.7-1.6-7.1 0 0 28.6-70.9 28.6-71z"/>
</svg>